<?xml version="1.0" encoding="UTF-8" standalone="no"?>
<!-- Created with Inkscape (http://www.inkscape.org/) -->

<svg
   width="130.83385mm"
   height="37.860367mm"
   viewBox="0 0 130.83385 37.860366"
   version="1.1"
   id="svg5"
   xmlns="http://www.w3.org/2000/svg"
   xmlns:svg="http://www.w3.org/2000/svg">
  <defs
     id="defs2">
    <filter
       style="color-interpolation-filters:sRGB"
       id="filter13675"
       x="-1.2"
       y="-1.2"
       width="3.4"
       height="3.4">
      <feGaussianBlur
         stdDeviation="5.7185683"
         id="feGaussianBlur13677" />
    </filter>
    <clipPath
       clipPathUnits="userSpaceOnUse"
       id="clipPath16730">
      <path
         id="path16732"
         style="fill:#ffffff;stroke:none;stroke-width:0.113479px;stroke-linecap:butt;stroke-linejoin:miter;stroke-opacity:1"
         d="m 49.242225,122.79671 a 12.866909,12.866909 0 0 0 -0.01529,0.0612 12.866909,12.866909 0 0 0 -0.18529,1.24893 12.866909,12.866909 0 0 0 -0.06184,1.26112 12.866909,12.866909 0 0 0 0.06184,1.26113 12.866909,12.866909 0 0 0 0.18529,1.24915 12.866909,12.866909 0 0 0 0.30697,1.22478 12.866909,12.866909 0 0 0 0.425323,1.18887 12.866909,12.866909 0 0 0 0.539913,1.14144 12.866909,12.866909 0 0 0 0.649179,1.08314 12.866909,12.866909 0 0 0 0.75202,1.01422 12.866909,12.866909 0 0 0 0.06915,0.0763 c 7.314462,1.58698 13.475458,1.07773 20.928006,-1.67847 a 12.866909,12.866909 0 0 0 0.296775,-0.49514 12.866909,12.866909 0 0 0 0.539911,-1.14144 12.866909,12.866909 0 0 0 0.425325,-1.18887 12.866909,12.866909 0 0 0 0.306748,-1.22478 12.866909,12.866909 0 0 0 0.185289,-1.24915 12.866909,12.866909 0 0 0 0.06206,-1.26113 12.866909,12.866909 0 0 0 -0.0071,-0.42997 12.866909,12.866909 0 0 0 -0.02172,-0.42932 12.866909,12.866909 0 0 0 -0.0359,-0.42865 12.866909,12.866909 0 0 0 -0.05009,-0.4271 12.866909,12.866909 0 0 0 -0.0645,-0.4251 12.866909,12.866909 0 0 0 -0.07846,-0.42266 12.866909,12.866909 0 0 0 -0.09287,-0.42001 12.866909,12.866909 0 0 0 -0.106609,-0.41646 12.866909,12.866909 0 0 0 -0.120572,-0.41291 12.866909,12.866909 0 0 0 -0.134091,-0.40848 12.866909,12.866909 0 0 0 -0.147832,-0.40383 12.866909,12.866909 0 0 0 -0.161354,-0.3985 12.866909,12.866909 0 0 0 -0.17443,-0.39319 12.866909,12.866909 0 0 0 -0.187505,-0.38698 12.866909,12.866909 0 0 0 -0.200362,-0.38033 12.866909,12.866909 0 0 0 -0.189279,-0.33224 c -7.907099,-1.65474 -14.503643,1.42607 -23.698711,3.9445 z m 0,0 c -5.22751,1.43177 -11.293548,2.68203 -18.92107,2.77625 8.889843,4.02921 15.656399,6.73392 21.648333,8.03396 a 12.866909,12.866909 0 0 1 -0.06915,-0.0763 12.866909,12.866909 0 0 1 -0.75202,-1.01422 12.866909,12.866909 0 0 1 -0.649179,-1.08314 12.866909,12.866909 0 0 1 -0.539913,-1.14144 12.866909,12.866909 0 0 1 -0.425323,-1.18887 12.866909,12.866909 0 0 1 -0.30697,-1.22478 12.866909,12.866909 0 0 1 -0.18529,-1.24915 12.866909,12.866909 0 0 1 -0.06184,-1.26113 12.866909,12.866909 0 0 1 0.06184,-1.26112 12.866909,12.866909 0 0 1 0.18529,-1.24893 12.866909,12.866909 0 0 1 0.01529,-0.0612 z m 23.655269,9.13174 c 3.977767,-1.47112 8.32278,-3.58026 13.410245,-6.35505 -5.113334,-3.87392 -9.404815,-5.89205 -13.366803,-6.72119 a 12.866909,12.866909 0 0 1 0.189279,0.33224 12.866909,12.866909 0 0 1 0.200362,0.38033 12.866909,12.866909 0 0 1 0.187505,0.38698 12.866909,12.866909 0 0 1 0.17443,0.39319 12.866909,12.866909 0 0 1 0.161354,0.3985 12.866909,12.866909 0 0 1 0.147832,0.40383 12.866909,12.866909 0 0 1 0.134091,0.40848 12.866909,12.866909 0 0 1 0.120572,0.41291 12.866909,12.866909 0 0 1 0.106609,0.41646 12.866909,12.866909 0 0 1 0.09287,0.42001 12.866909,12.866909 0 0 1 0.07846,0.42266 12.866909,12.866909 0 0 1 0.0645,0.4251 12.866909,12.866909 0 0 1 0.05009,0.4271 12.866909,12.866909 0 0 1 0.0359,0.42865 12.866909,12.866909 0 0 1 0.02172,0.42932 12.866909,12.866909 0 0 1 0.0071,0.42997 12.866909,12.866909 0 0 1 -0.06206,1.26113 12.866909,12.866909 0 0 1 -0.185289,1.24915 12.866909,12.866909 0 0 1 -0.306748,1.22478 12.866909,12.866909 0 0 1 -0.425325,1.18887 12.866909,12.866909 0 0 1 -0.539911,1.14144 12.866909,12.866909 0 0 1 -0.296775,0.49514 z" />
    </clipPath>
  </defs>
  <g
     id="layer1"
     transform="translate(12.027524,-107.74876)">
    <path
       id="path203"
       style="fill:none;stroke:#000000;stroke-width:0.999999px;stroke-linecap:butt;stroke-linejoin:miter;stroke-opacity:1"
       d="m 329.93945,527.08789 c 35.05289,-12.96375 73.34205,-31.54996 118.17383,-56.00195 -45.05975,-34.13784 -82.87716,-51.922 -117.79101,-59.22852 a 113.38583,113.38583 0 0 1 1.66796,2.92774 113.38583,113.38583 0 0 1 1.76563,3.35156 113.38583,113.38583 0 0 1 1.65234,3.41016 113.38583,113.38583 0 0 1 1.53711,3.46484 113.38583,113.38583 0 0 1 1.42188,3.51172 113.38583,113.38583 0 0 1 1.30273,3.55859 113.38583,113.38583 0 0 1 1.18164,3.59961 113.38583,113.38583 0 0 1 1.0625,3.63867 113.38583,113.38583 0 0 1 0.93946,3.66992 113.38583,113.38583 0 0 1 0.81836,3.70118 113.38583,113.38583 0 0 1 0.6914,3.72461 113.38583,113.38583 0 0 1 0.56836,3.74609 113.38583,113.38583 0 0 1 0.44141,3.76367 113.38583,113.38583 0 0 1 0.3164,3.77734 113.38583,113.38583 0 0 1 0.19141,3.78321 113.38583,113.38583 0 0 1 0.0625,3.78906 113.38583,113.38583 0 0 1 -0.54688,11.11328 113.38583,113.38583 0 0 1 -1.63281,11.00781 113.38583,113.38583 0 0 1 -2.70312,10.79297 113.38583,113.38583 0 0 1 -3.74805,10.47657 113.38583,113.38583 0 0 1 -4.75781,10.05859 113.38583,113.38583 0 0 1 -2.61524,4.36328 z"
       transform="scale(0.26458333)" />
    <path
       id="path8326"
       style="fill:none;stroke:#000000;stroke-width:0.999999px;stroke-linecap:butt;stroke-linejoin:miter;stroke-opacity:1"
       d="m 121.48438,446.61719 c -46.065883,12.61699 -99.52105,23.63457 -166.736333,24.46484 78.339114,35.50619 137.96739,59.34065 190.769533,70.79688 a 113.38583,113.38583 0 0 1 -0.60938,-0.67188 113.38583,113.38583 0 0 1 -6.62695,-8.9375 113.38583,113.38583 0 0 1 -5.7207,-9.54492 113.38583,113.38583 0 0 1 -4.75782,-10.05859 113.38583,113.38583 0 0 1 -3.74804,-10.47657 113.38583,113.38583 0 0 1 -2.70508,-10.79297 113.38583,113.38583 0 0 1 -1.63281,-11.00781 113.38583,113.38583 0 0 1 -0.54492,-11.11328 113.38583,113.38583 0 0 1 0.54492,-11.11328 113.38583,113.38583 0 0 1 1.63281,-11.00586 113.38583,113.38583 0 0 1 0.13477,-0.53906 z"
       transform="scale(0.26458333)" />
    <path
       id="path8324"
       style="fill:#000000;stroke:#000000;stroke-width:0.999999px;stroke-linecap:butt;stroke-linejoin:miter;stroke-opacity:1"
       d="m 121.48438,446.61719 a 113.38583,113.38583 0 0 0 -0.13477,0.53906 113.38583,113.38583 0 0 0 -1.63281,11.00586 113.38583,113.38583 0 0 0 -0.54492,11.11328 113.38583,113.38583 0 0 0 0.54492,11.11328 113.38583,113.38583 0 0 0 1.63281,11.00781 113.38583,113.38583 0 0 0 2.70508,10.79297 113.38583,113.38583 0 0 0 3.74804,10.47657 113.38583,113.38583 0 0 0 4.75782,10.05859 113.38583,113.38583 0 0 0 5.7207,9.54492 113.38583,113.38583 0 0 0 6.62695,8.9375 113.38583,113.38583 0 0 0 0.60938,0.67188 c 64.45654,13.98482 118.74849,9.49723 184.42187,-14.79102 a 113.38583,113.38583 0 0 0 2.61524,-4.36328 113.38583,113.38583 0 0 0 4.75781,-10.05859 113.38583,113.38583 0 0 0 3.74805,-10.47657 113.38583,113.38583 0 0 0 2.70312,-10.79297 113.38583,113.38583 0 0 0 1.63281,-11.00781 113.38583,113.38583 0 0 0 0.54688,-11.11328 113.38583,113.38583 0 0 0 -0.0625,-3.78906 113.38583,113.38583 0 0 0 -0.19141,-3.78321 113.38583,113.38583 0 0 0 -0.3164,-3.77734 113.38583,113.38583 0 0 0 -0.44141,-3.76367 113.38583,113.38583 0 0 0 -0.56836,-3.74609 113.38583,113.38583 0 0 0 -0.6914,-3.72461 113.38583,113.38583 0 0 0 -0.81836,-3.70118 113.38583,113.38583 0 0 0 -0.93946,-3.66992 113.38583,113.38583 0 0 0 -1.0625,-3.63867 113.38583,113.38583 0 0 0 -1.18164,-3.59961 113.38583,113.38583 0 0 0 -1.30273,-3.55859 113.38583,113.38583 0 0 0 -1.42188,-3.51172 113.38583,113.38583 0 0 0 -1.53711,-3.46484 113.38583,113.38583 0 0 0 -1.65234,-3.41016 113.38583,113.38583 0 0 0 -1.76563,-3.35156 113.38583,113.38583 0 0 0 -1.66796,-2.92774 C 260.6433,397.2755 202.5132,424.42419 121.48438,446.61719 Z"
       transform="scale(0.26458333)" />
    <circle
       style="opacity:1;mix-blend-mode:normal;fill:#4b18d2;fill-opacity:1;stroke-width:12.7686;stroke-miterlimit:4;stroke-dasharray:none;filter:url(#filter13675)"
       id="circle13673"
       r="5.7185683"
       cy="126.27327"
       cx="62.083893"
       transform="matrix(2.3315624,0,0,2.3315624,-82.668577,-168.14074)"
       clip-path="url(#clipPath16730)" />
    <circle
       style="opacity:1;fill:#0042ff;fill-opacity:1;stroke-width:12.7686;stroke-miterlimit:4;stroke-dasharray:none"
       id="path8391"
       r="5.7185683"
       cy="126.27327"
       cx="62.083893" />
    <path
       id="path8674"
       style="fill:none;stroke:none;stroke-width:0.999999px;stroke-linecap:butt;stroke-linejoin:miter;stroke-opacity:1"
       d="m 213.55273,577.89844 a 29.058888,29.058888 0 0 0 -3.79296,0.24804 29.058888,29.058888 0 0 0 -3.72852,0.74219 29.058888,29.058888 0 0 0 -3.59961,1.22071 29.058888,29.058888 0 0 0 -3.4082,1.68164 29.058888,29.058888 0 0 0 -3.16016,2.11132 29.058888,29.058888 0 0 0 -2.85937,2.50782 29.058888,29.058888 0 0 0 -2.50586,2.85742 29.058888,29.058888 0 0 0 -2.11133,3.16015 29.058888,29.058888 0 0 0 -1.68164,3.40821 29.058888,29.058888 0 0 0 -1.2207,3.59961 29.058888,29.058888 0 0 0 -0.74219,3.72851 29.058888,29.058888 0 0 0 -0.24805,3.79297 29.058888,29.058888 0 0 0 0.24805,3.79297 29.058888,29.058888 0 0 0 0.74219,3.72852 29.058888,29.058888 0 0 0 1.2207,3.5996 29.058888,29.058888 0 0 0 1.68164,3.40821 29.058888,29.058888 0 0 0 2.11133,3.16015 29.058888,29.058888 0 0 0 2.50586,2.85743 29.058888,29.058888 0 0 0 2.85937,2.50781 29.058888,29.058888 0 0 0 3.16016,2.11133 29.058888,29.058888 0 0 0 3.4082,1.68164 29.058888,29.058888 0 0 0 3.59961,1.2207 29.058888,29.058888 0 0 0 3.72852,0.74219 29.058888,29.058888 0 0 0 3.79296,0.24804 29.058888,29.058888 0 0 0 3.79297,-0.24804 29.058888,29.058888 0 0 0 3.72852,-0.74219 29.058888,29.058888 0 0 0 3.59766,-1.2207 29.058888,29.058888 0 0 0 3.41015,-1.68164 29.058888,29.058888 0 0 0 3.16016,-2.11133 29.058888,29.058888 0 0 0 2.85742,-2.50781 29.058888,29.058888 0 0 0 2.50586,-2.85743 29.058888,29.058888 0 0 0 2.11328,-3.16015 29.058888,29.058888 0 0 0 1.67969,-3.40821 29.058888,29.058888 0 0 0 1.22265,-3.5996 29.058888,29.058888 0 0 0 0.74219,-3.72852 29.058888,29.058888 0 0 0 0.24805,-3.79297 29.058888,29.058888 0 0 0 -0.0312,-1.3418 29.058888,29.058888 0 0 0 -0.0918,-1.33984 29.058888,29.058888 0 0 0 -0.15625,-1.33398 29.058888,29.058888 0 0 0 -0.21484,-1.32422 29.058888,29.058888 0 0 0 -0.27735,-1.3125 29.058888,29.058888 0 0 0 -0.33789,-1.30078 29.058888,29.058888 0 0 0 -0.39648,-1.28125 29.058888,29.058888 0 0 0 -0.45703,-1.26368 29.058888,29.058888 0 0 0 -0.51367,-1.24023 29.058888,29.058888 0 0 0 -0.57032,-1.21484 29.058888,29.058888 0 0 0 -0.625,-1.1875 29.058888,29.058888 0 0 0 -0.68164,-1.15625 29.058888,29.058888 0 0 0 -0.73242,-1.125 29.058888,29.058888 0 0 0 -0.7832,-1.08985 29.058888,29.058888 0 0 0 -0.83399,-1.05273 29.058888,29.058888 0 0 0 -0.88086,-1.01172 29.058888,29.058888 0 0 0 -0.92773,-0.9707 29.058888,29.058888 0 0 0 -0.9707,-0.92774 29.058888,29.058888 0 0 0 -1.01172,-0.88086 29.058888,29.058888 0 0 0 -1.05274,-0.83398 29.058888,29.058888 0 0 0 -1.08984,-0.7832 29.058888,29.058888 0 0 0 -1.125,-0.73438 29.058888,29.058888 0 0 0 -1.15625,-0.67969 29.058888,29.058888 0 0 0 -1.1875,-0.625 29.058888,29.058888 0 0 0 -1.2168,-0.57031 29.058888,29.058888 0 0 0 -1.24023,-0.51367 29.058888,29.058888 0 0 0 -1.26172,-0.45703 29.058888,29.058888 0 0 0 -1.2832,-0.39649 29.058888,29.058888 0 0 0 -1.29883,-0.33789 29.058888,29.058888 0 0 0 -1.3125,-0.27734 29.058888,29.058888 0 0 0 -1.32617,-0.2168 29.058888,29.058888 0 0 0 -1.33203,-0.1543 29.058888,29.058888 0 0 0 -1.33985,-0.0918 29.058888,29.058888 0 0 0 -1.3418,-0.0312 z"
       transform="scale(0.26458333)" />
  </g>
</svg>
